<svg width="176" height="199" viewBox="0 0 176 199" fill="none" xmlns="http://www.w3.org/2000/svg">
<path d="M49.0463 153.973C48.9833 153.973 48.9098 153.963 48.8363 153.952C48.2693 153.837 47.9018 153.28 48.0173 152.713L51.1672 136.964C51.2827 136.397 51.8287 136.03 52.4062 136.145C52.9731 136.261 53.3406 136.817 53.2251 137.384L50.0752 153.133C49.9807 153.637 49.5398 153.973 49.0463 153.973Z" fill="#272B3D"/>
<path d="M168.742 204.14C166.169 208.802 161.581 212.729 155.838 216.036C155.565 216.194 155.292 216.351 155.008 216.509C154.483 216.803 153.958 217.086 153.423 217.37C137.148 225.822 96.3994 240.07 96.3994 240.07L89.6796 225.056L88.5247 222.536L85.3748 214.451L83.6004 210.167L82.4349 207.941C92.777 203.678 99.0978 201.726 100.956 201.18C101.345 201.064 101.88 199.657 101.88 199.657L47.9857 199.647H47.9647L50.4741 155.454L50.5161 154.792C50.5161 154.792 50.4636 154.813 50.3586 154.866C48.4687 155.8 29.2755 165.197 10.6282 168.4C17.0329 134.339 30.5459 116.395 38.3786 108.5C38.4311 108.447 38.4941 108.395 38.5676 108.321C38.6201 108.279 38.6726 108.227 38.7251 108.174C39.5966 107.408 41.497 105.812 44.4474 103.901C46.9673 102.284 50.2326 100.446 54.2855 98.6825C54.275 98.6825 54.275 98.6825 54.2645 98.6825C64.4806 94.3147 76.3031 92.4142 78.8651 92.0048L79.2535 92.0783L79.39 92.1098C79.39 92.1098 79.4425 92.2357 79.5685 92.4457L79.6 92.0048H110.994C110.994 92.0048 120.086 92.8342 130.072 94.5457C130.072 94.5457 130.072 94.5457 130.082 94.5457C130.103 94.5457 130.156 94.5562 130.229 94.5667C130.324 94.5772 130.418 94.5982 130.513 94.6087C130.933 94.6927 131.353 94.7556 131.762 94.8291C131.867 94.8501 131.982 94.8712 132.098 94.8921C138.282 96.2151 157.119 102.189 166.789 126.863C176.238 155.569 178.748 185.997 168.742 204.14Z" fill="#DD76A9"/>
<path d="M101.544 201.221C101.103 201.221 100.694 200.948 100.547 200.507C100.358 199.961 100.652 199.363 101.208 199.174L106.721 197.326C116.38 194.082 128.402 190.05 137.936 186.585C138.482 186.386 139.08 186.669 139.28 187.215C139.479 187.761 139.196 188.359 138.65 188.559C129.095 192.034 117.052 196.077 107.382 199.321L101.87 201.169C101.765 201.211 101.66 201.221 101.544 201.221Z" fill="#272B3D"/>
<path d="M51.251 153.9L42.0429 199.647L38.3785 220.803H1.13647C1.74545 219.48 3.67738 211.679 9.73564 173.555C10.0191 171.802 10.3131 170.08 10.6281 168.4C17.0329 134.339 30.5458 116.395 38.3785 108.5C38.431 108.447 38.494 108.395 38.5675 108.321C38.62 108.279 38.6725 108.227 38.725 108.174C39.5965 107.408 41.4969 105.812 44.4473 103.901L51.251 153.9Z" fill="#DD76A9"/>
<path d="M132.098 95.0272C123.977 105.659 107.28 112.951 87.9996 112.951C72.5073 112.951 58.6825 108.243 49.6353 100.877C80.6501 84.0774 123.698 91.4271 132.098 95.0272Z" fill="#F2AD95"/>
<path d="M113.832 76.4405H105.036V96.152H113.832V76.4405Z" fill="#F2AD95"/>
<path d="M142.302 87.0717C142.302 88.4332 141.772 89.9367 139.857 89.9367H90.4467C90.4467 89.9367 61.553 24.4448 61.7656 9.27943C61.7656 9.27943 85.174 -9.26002 107.456 6.07113C129.737 21.4023 126.86 40.3443 125.404 51.4609C125.276 52.3843 125.223 53.2603 125.223 54.1009C125.181 63.4061 131.676 66.7802 137.98 70.6751C144.284 74.5701 142.302 83.6977 142.302 87.0717Z" fill="#272B3D"/>
<path d="M61.7658 9.27948C61.7658 9.27948 43.3684 18.6794 47.5356 47.6488C47.5356 56.5634 48.6248 63.7731 37.7332 70.0477C29.8486 74.5937 30.0617 82.9756 30.1209 87.2612C30.1446 88.7529 31.3639 89.9367 32.8556 89.9367H93.7067L102.029 45.435L61.7658 9.27948Z" fill="#272B3D"/>
<path d="M58.5928 56.7883C58.7822 54.9533 59.09 53.0236 59.4926 50.9873C60.3331 46.7609 60.7238 41.9899 61.1026 37.1242C61.1737 36.2126 61.2447 35.2892 61.3157 34.3776C66.4537 32.2821 71.8167 25.534 73.8766 22.7401H73.8885C74.729 22.5744 75.2381 22.456 75.2381 22.456C86.2481 35.005 97.9684 37.8463 97.9684 37.8463C105.545 29.4408 115.49 38.9118 115.49 44.9496C115.49 50.9873 107.558 58.2089 107.558 58.2089C107.558 58.2089 104.622 74.1912 108.682 91.4758H113.832V93.9974H80.8024V80.6545C77.2563 81.1762 71.8483 81.2448 66.951 78.3348C60.0016 74.2031 57.5155 67.1708 58.5928 56.7883Z" fill="#F2AD95"/>
<path d="M81.5592 81.4694C81.1567 81.4694 80.8016 81.1971 80.695 80.7946C80.5766 80.321 80.8608 79.8356 81.3461 79.7172C84.6491 78.8885 87.7746 77.7165 90.6277 76.2367C91.0657 76.0117 91.5985 76.1775 91.8234 76.6155C92.0483 77.0535 91.8826 77.5863 91.4446 77.8112C88.4731 79.3503 85.2174 80.5696 81.7842 81.4339C81.7013 81.4694 81.6303 81.4694 81.5592 81.4694Z" fill="#D27158"/>
<path d="M105.545 47.3764C105.214 47.3764 104.906 47.1989 104.752 46.891C104.527 46.453 104.705 45.9203 105.155 45.6953L112.258 42.1437C112.696 41.9188 113.229 42.1082 113.454 42.5462C113.679 42.9843 113.501 43.517 113.051 43.7419L105.948 47.2936C105.818 47.3528 105.676 47.3764 105.545 47.3764Z" fill="#A1563F"/>
<path d="M73.7227 67.5615C72.5151 67.5615 71.3904 67.3011 70.7511 66.9104C70.3249 66.6618 70.1947 66.1172 70.4433 65.691C70.6919 65.2766 71.2365 65.1346 71.6627 65.3832C72.1244 65.6555 73.6871 66.0106 75.2143 65.5844C76.2798 65.2885 77.0493 64.6965 77.5229 63.8205C77.7597 63.3943 78.2924 63.2285 78.7304 63.4653C79.1685 63.7021 79.3224 64.2348 79.0856 64.6729C78.3871 65.9751 77.2032 66.8867 75.6879 67.3011C75.0486 67.4786 74.3738 67.5615 73.7227 67.5615Z" fill="#272B3D"/>
<path d="M73.5808 61.583C73.5335 61.583 73.4861 61.583 73.4388 61.5712L69.8871 60.9792C69.6385 60.9437 69.4254 60.8017 69.2952 60.5886C69.1531 60.3873 69.1176 60.1269 69.1768 59.8901L71.071 52.1949C71.1894 51.7214 71.6748 51.4254 72.1483 51.5438C72.6219 51.6622 72.9178 52.1357 72.7995 52.6211L71.1302 59.381L73.7347 59.819C74.2201 59.9019 74.5398 60.3518 74.4687 60.8372C74.3859 61.2752 74.007 61.583 73.5808 61.583Z" fill="#272B3D"/>
<path d="M61.7658 46.3821C61.529 46.3821 61.2922 46.2874 61.1146 46.0979C60.7831 45.7428 60.8068 45.1745 61.162 44.843C64.9741 41.3032 69.0111 43.2211 70.6093 44.7365C70.9645 45.068 70.9763 45.6362 70.6448 45.9914C70.3133 46.3465 69.7451 46.3584 69.3899 46.0269C69.236 45.8848 65.9093 42.8541 62.3695 46.1453C62.2038 46.2992 61.9907 46.3821 61.7658 46.3821Z" fill="#272B3D"/>
<path d="M77.7477 46.3821C77.5109 46.3821 77.2741 46.2874 77.0966 46.0979C76.7651 45.7428 76.7888 45.1745 77.1439 44.843C80.956 41.3032 84.993 43.2211 86.5912 44.7365C86.9464 45.068 86.9582 45.6362 86.6267 45.9914C86.2834 46.3465 85.727 46.3584 85.3718 46.0269C85.2179 45.8848 81.8912 42.8541 78.3515 46.1453C78.1857 46.2992 77.9726 46.3821 77.7477 46.3821Z" fill="#272B3D"/>
<path d="M81.4652 52.5499C82.7728 52.5499 83.8329 51.4898 83.8329 50.1822C83.8329 48.8745 82.7728 47.8144 81.4652 47.8144C80.1575 47.8144 79.0974 48.8745 79.0974 50.1822C79.0974 51.4898 80.1575 52.5499 81.4652 52.5499Z" fill="#272B3D"/>
<path d="M66.0511 52.5499C67.3588 52.5499 68.4188 51.4898 68.4188 50.1822C68.4188 48.8745 67.3588 47.8144 66.0511 47.8144C64.7434 47.8144 63.6833 48.8745 63.6833 50.1822C63.6833 51.4898 64.7434 52.5499 66.0511 52.5499Z" fill="#272B3D"/>
<path d="M68.9634 21.7947C68.9634 21.7947 65.6259 41.1308 101.52 41.6702C107.1 37.0421 115.066 25.9686 115.066 25.9686C115.066 25.9686 91.3633 5.79496 68.9634 21.7947Z" fill="#272B3D"/>
<path d="M107.558 58.209L101.52 75.4107C101.52 81.922 98.3355 85.4735 95.8967 87.9834C95.1864 88.7174 95.7191 89.9486 96.7372 89.9486H113.832L117.1 66.8039L107.558 58.209Z" fill="#272B3D"/>
<path d="M101.52 32.1993V76.0026H121.646V32.1993H101.52Z" fill="#272B3D"/>
<circle cx="102.704" cy="46.9976" r="7.69517" fill="#F2AD95"/>
<rect width="18.8188" height="2.3681" rx="1.18405" transform="matrix(0.733548 -0.679638 0.658519 0.752564 96.1926 29.5988)" fill="#E48FBA"/>
<rect width="18.8188" height="2.3681" rx="1.18405" transform="matrix(0.733548 -0.679638 0.658519 0.752564 98.8677 33.1051)" fill="#E48FBA"/>
<path d="M100.928 48.1816L105.072 45.2219" stroke="#D27158" stroke-width="1.5" stroke-linecap="round"/>
<path d="M51.2511 146.55L50.2012 167.549" stroke="#272B3D" stroke-width="2" stroke-linecap="round"/>
<path d="M133.351 162.228L131.895 189.67" stroke="#272B3D" stroke-width="2" stroke-linecap="round"/>
</svg>

